<?xml version="1.0" encoding="utf-8"?>
<!-- Generator: Adobe Illustrator 24.1.1, SVG Export Plug-In . SVG Version: 6.00 Build 0)  -->
<svg version="1.1" id="Layer_1" xmlns="http://www.w3.org/2000/svg" xmlns:xlink="http://www.w3.org/1999/xlink" x="0px" y="0px"
	 viewBox="0 0 512 512" style="enable-background:new 0 0 512 512;" xml:space="preserve">
<g>
	<path fill="#3c6b7e" d="M427.52,0c28.65,0,52,23.08,52.48,51.85v0.88V512l-55.02-48.65L394,434.67l-32.77-30.45l13.57,47.35H84.5
		c-28.65,0-52-23.08-52.47-51.83l-0.03-0.9V52.72C32,23.85,55.08,0.47,83.6,0h0.9H427.52z M219.4,122.38l-2.55-3.07h-1.48
		c-6.98,0.22-38.02,2.55-70.48,26.88l-1.22,2.35c-6.43,12.55-35.63,73.53-35.63,146.9l0.52,0.85c3.63,5.55,26.07,36.43,77.55,38.05
		l7.55-9.25c2.97-3.68,6.45-7.98,9.6-12c-29.85-8.93-42.65-26.9-44.55-29.8l-0.25-0.4l1.05,0.7c1.15,0.75,3.25,2.05,6.13,3.65
		l1.03,0.77l2.3,1.27c6.4,3.6,12.8,6.4,18.67,8.7c10.5,4.1,23.05,8.2,37.65,11.02c18.65,3.48,40.43,4.77,64.2,0.63l2.1-0.38
		c12.02-2.05,24.32-5.63,37.13-11c8.95-3.35,18.92-8.2,29.42-15.13l-0.42,0.65c-2.45,3.58-15.85,21.33-45.9,29.83l4.22,5.3
		c6.48,8.02,12.68,15.43,12.68,15.43c56.57-1.78,78.32-38.9,78.32-38.9c0-82.42-36.85-149.25-36.85-149.25
		c-31.73-23.78-62.1-26.55-69.98-26.85l-1.98-0.02l-3.58,4.1c38.58,11.8,58.85,28.22,62.95,31.8l0.77,0.7
		c-26.6-14.6-52.73-21.75-77.05-24.57c-18.43-2.05-36.1-1.52-51.7,0.53l-4.35,0.5l-1.45,0.13c-9.7,1-30.65,4.57-56.68,16l-3.73,1.75
		c-4.65,2.2-8.02,3.92-9.85,4.88l-1.53,0.8c0,0,20.82-19.82,65.95-33.12L219.4,122.38z M209.68,214.77
		c14.6,0,26.38,12.8,26.13,28.43c0,15.63-11.53,28.43-26.13,28.43c-14.32,0-26.1-12.8-26.1-28.43S195.07,214.77,209.68,214.77z
		 M303.13,214.77c14.58,0,26.1,12.8,26.1,28.43s-11.52,28.43-26.1,28.43c-14.35,0-26.13-12.8-26.13-28.43
		S288.52,214.77,303.13,214.77z"/>
</g>
</svg>
