<svg version="1.1" xmlns="http://www.w3.org/2000/svg" xmlns:xlink="http://www.w3.org/1999/xlink" width="835" height="734.0000000000001"><style xmlns="http://www.w3.org/1999/xhtml"></style><defs/><g transform="translate(0,0)"><path fill="none" stroke="none" stroke-dasharray="undefined" vector-effect="non-scaling-stroke"/><g><rect fill="#FFFFFF" stroke="none" x="0" y="0" width="835" height="734.0000000000001"/></g><g data-width="790" data-height="690.0000000000001" data-layerId="li4HxaSbWyN8" transform="translate(0,0) matrix(1,0,0,1,25,24)"><g><g transform="translate(0,0) scale(7.9,6.900000000000001)"><g><path fill="#FFFFFF" stroke="#666666" stroke-dasharray="1.7976931348623157e+308" vector-effect="non-scaling-stroke" d="M 25 0 L 75 0 L 100 50 L 75 100 L 25 100 L 0 50 L 25 0 Z" stroke-miterlimit="10" stroke-width="2"/><g transform="scale(0.12658227848101264,0.14492753623188404)"/></g></g></g></g><g data-width="620" data-height="546" data-layerId="li4HxaSbWyN8" transform="translate(0,0) matrix(1,0,0,1,110,95.25000000000011)"><g><g transform="translate(0,0) scale(6.2,5.46)"><g><path fill="#FFFFFF" stroke="#666666" stroke-dasharray="1.7976931348623157e+308" vector-effect="non-scaling-stroke" d="M 25 0 L 75 0 L 100 50 L 75 100 L 25 100 L 0 50 L 25 0 Z" stroke-miterlimit="10" stroke-width="2"/><g transform="scale(0.16129032258064516,0.18315018315018314)"/></g></g></g></g><g data-width="361" data-height="314" data-layerId="li4HxaSbWyN8" transform="translate(0,0) matrix(1,0,0,1,239.5,209.2500000000001)"><g><g transform="translate(0,0) scale(3.61,3.14)"><g><path fill="#FFFFFF" stroke="#666666" stroke-dasharray="1.7976931348623157e+308" vector-effect="non-scaling-stroke" d="M 25 0 L 75 0 L 100 50 L 75 100 L 25 100 L 0 50 L 25 0 Z" stroke-miterlimit="10" stroke-width="2"/><g transform="scale(0.2770083102493075,0.3184713375796178)"/></g></g></g></g><g transform="matrix(1,0,0,1,324,193)"><g><g><rect fill="rgb(0,0,0)" stroke="none" x="0" y="0" width="196" height="30" fill-opacity="0"/></g></g><g><g><rect fill="rgb(0,0,0)" stroke="none" x="0" y="0" width="196" height="15" fill-opacity="0"/></g></g><g><g><rect fill="rgb(0,0,0)" stroke="none" x="6.984375" y="0" width="182" height="15" fill-opacity="0"/></g></g><g><g><rect fill="rgb(0,0,0)" stroke="none" x="6.984375" y="0" width="182" height="15" fill-opacity="0"/></g><text fill="rgb(0, 0, 0)" stroke="none" font-family="Arial" font-size="13px" font-style="normal" font-weight="700" text-decoration="" line-height="15.5px" x="6.984375" y="12" data-layerId="li4HxaSbWyN8">Core</text><text fill="rgb(0, 0, 0)" stroke="none" font-family="Arial" font-size="13px" font-style="normal" font-weight="700" text-decoration="" line-height="15.5px" x="40.203125" y="12" data-layerId="li4HxaSbWyN8">Contracts</text><text fill="rgb(0, 0, 0)" stroke="none" font-family="Arial" font-size="13px" font-style="normal" font-weight="700" text-decoration="" line-height="15.5px" x="100.890625" y="12" data-layerId="li4HxaSbWyN8"> (</text><text fill="rgb(0, 0, 0)" stroke="none" font-family="Arial" font-size="13px" font-style="normal" font-weight="700" text-decoration="" line-height="15.5px" x="108.828125" y="12" data-layerId="li4HxaSbWyN8">onlyAdapter</text><text fill="rgb(0, 0, 0)" stroke="none" font-family="Arial" font-size="13px" font-style="normal" font-weight="700" text-decoration="" line-height="15.5px" x="184.671875" y="12" data-layerId="li4HxaSbWyN8">)</text></g></g><g transform="matrix(1,0,0,1,313,79)"><g><g><rect fill="rgb(0,0,0)" stroke="none" x="0" y="0" width="215" height="28" fill-opacity="0"/></g></g><g><g><rect fill="rgb(0,0,0)" stroke="none" x="0" y="0" width="215" height="15" fill-opacity="0"/></g></g><g><g><rect fill="rgb(0,0,0)" stroke="none" x="0.9375" y="0" width="213" height="15" fill-opacity="0"/></g></g><g><g><rect fill="rgb(0,0,0)" stroke="none" x="0.9375" y="0" width="213" height="15" fill-opacity="0"/></g><text fill="rgb(0, 0, 0)" stroke="none" font-family="Arial" font-size="13px" font-style="normal" font-weight="700" text-decoration="" line-height="15.5px" x="0.9375" y="12" data-layerId="li4HxaSbWyN8">Adapters</text><text fill="rgb(0, 0, 0)" stroke="none" font-family="Arial" font-size="13px" font-style="normal" font-weight="700" text-decoration="" line-height="15.5px" x="57.28125" y="12" data-layerId="li4HxaSbWyN8"> (</text><text fill="rgb(0, 0, 0)" stroke="none" font-family="Arial" font-size="13px" font-style="normal" font-weight="700" text-decoration="" line-height="15.5px" x="65.21875" y="12" data-layerId="li4HxaSbWyN8">external</text><text fill="rgb(0, 0, 0)" stroke="none" font-family="Arial" font-size="13px" font-style="normal" font-weight="700" text-decoration="" line-height="15.5px" x="115.078125" y="12" data-layerId="li4HxaSbWyN8"> /</text><text fill="rgb(0, 0, 0)" stroke="none" font-family="Arial" font-size="13px" font-style="normal" font-weight="700" text-decoration="" line-height="15.5px" x="125.921875" y="12" data-layerId="li4HxaSbWyN8">onlyMembers</text><text fill="rgb(0, 0, 0)" stroke="none" font-family="Arial" font-size="13px" font-style="normal" font-weight="700" text-decoration="" line-height="15.5px" x="209.71875" y="12" data-layerId="li4HxaSbWyN8">)</text></g></g><g transform="matrix(1,0,0,1,341,10)"><g><g><rect fill="rgb(0,0,0)" stroke="none" x="0" y="0" width="146" height="15" fill-opacity="0"/></g></g><g><g><rect fill="rgb(0,0,0)" stroke="none" x="0" y="0" width="146" height="15" fill-opacity="0"/></g></g><g><g><rect fill="rgb(0,0,0)" stroke="none" x="27.234375" y="0" width="92" height="15" fill-opacity="0"/></g></g><g><g><rect fill="rgb(0,0,0)" stroke="none" x="27.234375" y="0" width="92" height="15" fill-opacity="0"/></g><text fill="rgb(0, 0, 0)" stroke="none" font-family="Arial" font-size="13px" font-style="normal" font-weight="700" text-decoration="" line-height="15.5px" x="27.234375" y="12" data-layerId="li4HxaSbWyN8">External</text><text fill="rgb(0, 0, 0)" stroke="none" font-family="Arial" font-size="13px" font-style="normal" font-weight="700" text-decoration="" line-height="15.5px" x="82.140625" y="12" data-layerId="li4HxaSbWyN8">World</text></g></g><g data-width="78" data-height="15" data-layerId="li4HxaSbWyN8" transform="translate(0,0) matrix(1,0,0,1,272,154.2500000000001)"><g><g transform="translate(0,0) scale(0.78,0.15)"><g><path fill="#EEEEEE" stroke="#333333" data-layerId="li4HxaSbWyN8" stroke-dasharray="1.7976931348623157e+308" vector-effect="non-scaling-stroke" d="M 0 0 L 100 0 Q 100 0 100 0 L 100 100 Q 100 100 100 100 L 0 100 Q 0 100 0 100 L 0 0 Q 0 0 0 0 Z" stroke-miterlimit="10" stroke-width="2"/><g transform="scale(1.282051282051282,6.666666666666667)"/></g></g></g></g><g transform="matrix(1,0,0,1,273,155)"><g><g><rect fill="rgb(0,0,0)" stroke="none" x="0" y="0" width="76" height="14" fill-opacity="0"/></g></g><g><g><rect fill="rgb(0,0,0)" stroke="none" x="0" y="0" width="76" height="14" fill-opacity="0"/></g></g><g><g><rect fill="rgb(0,0,0)" stroke="none" x="19.53125" y="0" width="36" height="14" fill-opacity="0"/></g></g><g><g><rect fill="rgb(0,0,0)" stroke="none" x="19.53125" y="0" width="36" height="14" fill-opacity="0"/></g><text fill="rgb(0, 0, 0)" stroke="none" font-family="Arial" font-size="12px" font-style="normal" font-weight="700" text-decoration="" line-height="14px" x="19.53125" y="11" data-layerId="li4HxaSbWyN8">Voting</text></g></g><g data-width="84" data-height="15" data-layerId="li4HxaSbWyN8" transform="translate(0,0) matrix(1,0,0,1,376,114.25000000000011)"><g><g transform="translate(0,0) scale(0.84,0.15)"><g><path fill="#EEEEEE" stroke="#333333" data-layerId="li4HxaSbWyN8" stroke-dasharray="1.7976931348623157e+308" vector-effect="non-scaling-stroke" d="M 0 0 L 100 0 Q 100 0 100 0 L 100 100 Q 100 100 100 100 L 0 100 Q 0 100 0 100 L 0 0 Q 0 0 0 0 Z" stroke-miterlimit="10" stroke-width="2"/><g transform="scale(1.1904761904761905,6.666666666666667)"/></g></g></g></g><g transform="matrix(1,0,0,1,377,115)"><g><g><rect fill="rgb(0,0,0)" stroke="none" x="0" y="0" width="81" height="14" fill-opacity="0"/></g></g><g><g><rect fill="rgb(0,0,0)" stroke="none" x="0" y="0" width="81" height="14" fill-opacity="0"/></g></g><g><g><rect fill="rgb(0,0,0)" stroke="none" x="12.640625" y="0" width="56" height="14" fill-opacity="0"/></g></g><g><g><rect fill="rgb(0,0,0)" stroke="none" x="12.640625" y="0" width="56" height="14" fill-opacity="0"/></g><text fill="rgb(0, 0, 0)" stroke="none" font-family="Arial" font-size="12px" font-style="normal" font-weight="700" text-decoration="" line-height="14px" x="12.640625" y="11" data-layerId="li4HxaSbWyN8">Managing</text></g></g><g data-width="50" data-height="33" data-layerId="li4HxaSbWyN8" transform="translate(0,0) matrix(1,0,0,1,83,352.0000000000001)"><g><g transform="translate(0,0) scale(0.5,0.33)"><g><path fill="#CCCCCC" stroke="#333333" data-layerId="li4HxaSbWyN8" stroke-dasharray="1.7976931348623157e+308" vector-effect="non-scaling-stroke" d="M 0 30 L 67 30 L 67 0 L 100 50 L 67 100 L 67 70 L 0 70 L 0 30 Z" stroke-miterlimit="10" stroke-width="2"/><g transform="scale(2,3.0303030303030303)"/></g></g></g></g><g data-width="122" data-height="50" data-layerId="li4HxaSbWyN8" transform="translate(0,0) matrix(1,0,0,1,357,250)"><g><g transform="translate(0,0) scale(1.22,0.5)"><g><path fill="#EEEEEE" stroke="#333333" data-layerId="li4HxaSbWyN8" stroke-dasharray="1.7976931348623157e+308" vector-effect="non-scaling-stroke" d="M 8.19672131147541 0 L 91.80327868852459 0 Q 100 0 100 20 L 100 80 Q 100 100 91.80327868852459 100 L 8.19672131147541 100 Q 0 100 0 80 L 0 20 Q 0 0 8.19672131147541 0 Z" stroke-miterlimit="10" stroke-width="2"/><g transform="scale(0.819672131147541,2)"/></g></g></g></g><g transform="matrix(1,0,0,1,360,268)"><g><g><rect fill="rgb(0,0,0)" stroke="none" x="0" y="0" width="116" height="14" fill-opacity="0"/></g></g><g><g><rect fill="rgb(0,0,0)" stroke="none" x="0" y="0" width="116" height="14" fill-opacity="0"/></g></g><g><g><rect fill="rgb(0,0,0)" stroke="none" x="18.921875" y="0" width="78" height="14" fill-opacity="0"/></g><text fill="rgb(0, 0, 0)" stroke="none" font-family="Arial" font-size="12px" font-style="normal" font-weight="700" text-decoration="" line-height="14px" x="18.921875" y="11" data-layerId="li4HxaSbWyN8">DAO</text><text fill="rgb(0, 0, 0)" stroke="none" font-family="Arial" font-size="12px" font-style="normal" font-weight="700" text-decoration="" line-height="14px" x="48.921875" y="11" data-layerId="li4HxaSbWyN8">Registry</text></g></g><g data-width="105" data-height="15" data-layerId="li4HxaSbWyN8" transform="translate(0,0) matrix(1,0,0,1,367.5,154.2500000000001)"><g><g transform="translate(0,0) scale(1.05,0.15)"><g><path fill="#EEEEEE" stroke="#333333" data-layerId="li4HxaSbWyN8" stroke-dasharray="1.7976931348623157e+308" vector-effect="non-scaling-stroke" d="M 0 0 L 100 0 Q 100 0 100 0 L 100 100 Q 100 100 100 100 L 0 100 Q 0 100 0 100 L 0 0 Q 0 0 0 0 Z" stroke-miterlimit="10" stroke-width="2"/><g transform="scale(0.9523809523809523,6.666666666666667)"/></g></g></g></g><g transform="matrix(1,0,0,1,369,155)"><g><g><rect fill="rgb(0,0,0)" stroke="none" x="0" y="0" width="102" height="14" fill-opacity="0"/></g></g><g><g><rect fill="rgb(0,0,0)" stroke="none" x="0" y="0" width="102" height="14" fill-opacity="0"/></g></g><g><g><rect fill="rgb(0,0,0)" stroke="none" x="6.59375" y="0" width="88" height="14" fill-opacity="0"/></g></g><g><g><rect fill="rgb(0,0,0)" stroke="none" x="6.59375" y="0" width="88" height="14" fill-opacity="0"/></g><text fill="rgb(0, 0, 0)" stroke="none" font-family="Arial" font-size="12px" font-style="normal" font-weight="700" text-decoration="" line-height="14px" x="6.59375" y="11" data-layerId="li4HxaSbWyN8">Offchain</text><text fill="rgb(0, 0, 0)" stroke="none" font-family="Arial" font-size="12px" font-style="normal" font-weight="700" text-decoration="" line-height="14px" x="58.59375" y="11" data-layerId="li4HxaSbWyN8">Voting</text></g></g><g data-width="88" data-height="15" data-layerId="li4HxaSbWyN8" transform="translate(0,0) matrix(1,0,0,1,477,114.25000000000011)"><g><g transform="translate(0,0) scale(0.88,0.15)"><g><path fill="#EEEEEE" stroke="#333333" data-layerId="li4HxaSbWyN8" stroke-dasharray="1.7976931348623157e+308" vector-effect="non-scaling-stroke" d="M 0 0 L 100 0 Q 100 0 100 0 L 100 100 Q 100 100 100 100 L 0 100 Q 0 100 0 100 L 0 0 Q 0 0 0 0 Z" stroke-miterlimit="10" stroke-width="2"/><g transform="scale(1.1363636363636365,6.666666666666667)"/></g></g></g></g><g transform="matrix(1,0,0,1,478,115)"><g><g><rect fill="rgb(0,0,0)" stroke="none" x="0" y="0" width="85" height="14" fill-opacity="0"/></g></g><g><g><rect fill="rgb(0,0,0)" stroke="none" x="0" y="0" width="85" height="14" fill-opacity="0"/></g></g><g><g><rect fill="rgb(0,0,0)" stroke="none" x="8.578125" y="0" width="68" height="14" fill-opacity="0"/></g></g><g><g><rect fill="rgb(0,0,0)" stroke="none" x="8.578125" y="0" width="68" height="14" fill-opacity="0"/></g><text fill="rgb(0, 0, 0)" stroke="none" font-family="Arial" font-size="12px" font-style="normal" font-weight="700" text-decoration="" line-height="14px" x="8.578125" y="11" data-layerId="li4HxaSbWyN8">Onboarding</text></g></g><g data-width="90" data-height="15" data-layerId="li4HxaSbWyN8" transform="translate(0,0) matrix(1,0,0,1,263,587.2500000000001)"><g><g transform="translate(0,0) scale(0.9,0.15)"><g><path fill="#EEEEEE" stroke="#333333" data-layerId="li4HxaSbWyN8" stroke-dasharray="1.7976931348623157e+308" vector-effect="non-scaling-stroke" d="M 0 0 L 100 0 Q 100 0 100 0 L 100 100 Q 100 100 100 100 L 0 100 Q 0 100 0 100 L 0 0 Q 0 0 0 0 Z" stroke-miterlimit="10" stroke-width="2"/><g transform="scale(1.1111111111111112,6.666666666666667)"/></g></g></g></g><g transform="matrix(1,0,0,1,264,588)"><g><g><rect fill="rgb(0,0,0)" stroke="none" x="0" y="0" width="87" height="14" fill-opacity="0"/></g></g><g><g><rect fill="rgb(0,0,0)" stroke="none" x="0" y="0" width="87" height="14" fill-opacity="0"/></g></g><g><g><rect fill="rgb(0,0,0)" stroke="none" x="15.21875" y="0" width="57" height="14" fill-opacity="0"/></g></g><g><g><rect fill="rgb(0,0,0)" stroke="none" x="15.21875" y="0" width="57" height="14" fill-opacity="0"/></g><text fill="rgb(0, 0, 0)" stroke="none" font-family="Arial" font-size="12px" font-style="normal" font-weight="700" text-decoration="" line-height="14px" x="15.21875" y="11" data-layerId="li4HxaSbWyN8">Rage</text><text fill="rgb(0, 0, 0)" stroke="none" font-family="Arial" font-size="12px" font-style="normal" font-weight="700" text-decoration="" line-height="14px" x="47.890625" y="11" data-layerId="li4HxaSbWyN8">Quit</text></g></g><g data-width="80" data-height="15" data-layerId="li4HxaSbWyN8" transform="translate(0,0) matrix(1,0,0,1,490.5,154.2500000000001)"><g><g transform="translate(0,0) scale(0.8,0.15)"><g><path fill="#EEEEEE" stroke="#333333" data-layerId="li4HxaSbWyN8" stroke-dasharray="1.7976931348623157e+308" vector-effect="non-scaling-stroke" d="M 0 0 L 100 0 Q 100 0 100 0 L 100 100 Q 100 100 100 100 L 0 100 Q 0 100 0 100 L 0 0 Q 0 0 0 0 Z" stroke-miterlimit="10" stroke-width="2"/><g transform="scale(1.25,6.666666666666667)"/></g></g></g></g><g transform="matrix(1,0,0,1,492,155)"><g><g><rect fill="rgb(0,0,0)" stroke="none" x="0" y="0" width="77" height="14" fill-opacity="0"/></g></g><g><g><rect fill="rgb(0,0,0)" stroke="none" x="0" y="0" width="77" height="14" fill-opacity="0"/></g></g><g><g><rect fill="rgb(0,0,0)" stroke="none" x="10.375" y="0" width="57" height="14" fill-opacity="0"/></g></g><g><g><rect fill="rgb(0,0,0)" stroke="none" x="10.375" y="0" width="57" height="14" fill-opacity="0"/></g><text fill="rgb(0, 0, 0)" stroke="none" font-family="Arial" font-size="12px" font-style="normal" font-weight="700" text-decoration="" line-height="14px" x="10.375" y="11" data-layerId="li4HxaSbWyN8">Financing</text></g></g><g data-width="202" data-height="30" data-layerId="li4HxaSbWyN8" transform="translate(0,0) matrix(1,0,0,1,320.5,439.2500000000001)"><g><g transform="translate(0,0) scale(2.02,0.3)"><g><path fill="#EEEEEE" stroke="#333333" data-layerId="li4HxaSbWyN8" stroke-dasharray="1.7976931348623157e+308" vector-effect="non-scaling-stroke" d="M 0 0 L 100 0 Q 100 0 100 0 L 100 100 Q 100 100 100 100 L 0 100 Q 0 100 0 100 L 0 0 Q 0 0 0 0 Z" stroke-miterlimit="10" stroke-width="2"/><g transform="scale(0.49504950495049505,3.3333333333333335)"/></g></g></g></g><g transform="matrix(1,0,0,1,324,447)"><g><g><rect fill="rgb(0,0,0)" stroke="none" x="0" y="0" width="194" height="14" fill-opacity="0"/></g></g><g><g><rect fill="rgb(0,0,0)" stroke="none" x="0" y="0" width="194" height="14" fill-opacity="0"/></g></g><g><g><rect fill="rgb(0,0,0)" stroke="none" x="52.015625" y="0" width="90" height="14" fill-opacity="0"/></g></g><g><g><rect fill="rgb(0,0,0)" stroke="none" x="52.015625" y="0" width="90" height="14" fill-opacity="0"/></g><text fill="rgb(0, 0, 0)" stroke="none" font-family="Arial" font-size="12px" font-style="normal" font-weight="700" text-decoration="" line-height="14px" x="52.015625" y="11" data-layerId="li4HxaSbWyN8">Bank</text><text fill="rgb(0, 0, 0)" stroke="none" font-family="Arial" font-size="12px" font-style="normal" font-weight="700" text-decoration="" line-height="14px" x="84.6875" y="11" data-layerId="li4HxaSbWyN8">Extension</text></g></g><g data-width="50" data-height="33" data-layerId="li4HxaSbWyN8" transform="translate(0,0) matrix(1,0,0,1,20,352.5000000000001)"><g><g transform="translate(0,0) scale(0.5,0.33)"><g><path fill="#CCCCCC" stroke="#333333" data-layerId="li4HxaSbWyN8" stroke-dasharray="1.7976931348623157e+308" vector-effect="non-scaling-stroke" d="M 0 30 L 67 30 L 67 0 L 100 50 L 67 100 L 67 70 L 0 70 L 0 30 Z" stroke-miterlimit="10" stroke-width="2"/><g transform="scale(2,3.0303030303030303)"/></g></g></g></g><g data-width="50" data-height="33" data-layerId="li4HxaSbWyN8" transform="translate(0,0) matrix(1,0,0,1,147,352.5000000000001)"><g><g transform="translate(0,0) scale(0.5,0.33)"><g><path fill="#CCCCCC" stroke="#333333" data-layerId="li4HxaSbWyN8" stroke-dasharray="1.7976931348623157e+308" vector-effect="non-scaling-stroke" d="M 0 30 L 67 30 L 67 0 L 100 50 L 67 100 L 67 70 L 0 70 L 0 30 Z" stroke-miterlimit="10" stroke-width="2"/><g transform="scale(2,3.0303030303030303)"/></g></g></g></g><g data-width="50" data-height="33" data-layerId="li4HxaSbWyN8" transform="translate(0,0) matrix(1,0,0,1,210,352.5000000000001)"><g><g transform="translate(0,0) scale(0.5,0.33)"><g><path fill="#CCCCCC" stroke="#333333" data-layerId="li4HxaSbWyN8" stroke-dasharray="1.7976931348623157e+308" vector-effect="non-scaling-stroke" d="M 0 30 L 67 30 L 67 0 L 100 50 L 67 100 L 67 70 L 0 70 L 0 30 Z" stroke-miterlimit="10" stroke-width="2"/><g transform="scale(2,3.0303030303030303)"/></g></g></g></g><g data-width="88" data-height="15" data-layerId="li4HxaSbWyN8" transform="translate(0,0) matrix(1,0,0,1,379,587.2500000000001)"><g><g transform="translate(0,0) scale(0.88,0.15)"><g><path fill="#EEEEEE" stroke="#333333" data-layerId="li4HxaSbWyN8" stroke-dasharray="1.7976931348623157e+308" vector-effect="non-scaling-stroke" d="M 0 0 L 100 0 Q 100 0 100 0 L 100 100 Q 100 100 100 100 L 0 100 Q 0 100 0 100 L 0 0 Q 0 0 0 0 Z" stroke-miterlimit="10" stroke-width="2"/><g transform="scale(1.1363636363636365,6.666666666666667)"/></g></g></g></g><g transform="matrix(1,0,0,1,380,588)"><g><g><rect fill="rgb(0,0,0)" stroke="none" x="0" y="0" width="85" height="14" fill-opacity="0"/></g></g><g><g><rect fill="rgb(0,0,0)" stroke="none" x="0" y="0" width="85" height="14" fill-opacity="0"/></g></g><g><g><rect fill="rgb(0,0,0)" stroke="none" x="12.90625" y="0" width="59" height="14" fill-opacity="0"/></g></g><g><g><rect fill="rgb(0,0,0)" stroke="none" x="12.90625" y="0" width="59" height="14" fill-opacity="0"/></g><text fill="rgb(0, 0, 0)" stroke="none" font-family="Arial" font-size="12px" font-style="normal" font-weight="700" text-decoration="" line-height="14px" x="12.90625" y="11" data-layerId="li4HxaSbWyN8">Guild</text><text fill="rgb(0, 0, 0)" stroke="none" font-family="Arial" font-size="12px" font-style="normal" font-weight="700" text-decoration="" line-height="14px" x="46.890625" y="11" data-layerId="li4HxaSbWyN8">Kick</text></g></g><g data-width="78" data-height="15" data-layerId="li4HxaSbWyN8" transform="translate(0,0) matrix(1,0,0,1,493.5,587.2500000000001)"><g><g transform="translate(0,0) scale(0.78,0.15)"><g><path fill="#EEEEEE" stroke="#333333" data-layerId="li4HxaSbWyN8" stroke-dasharray="1.7976931348623157e+308" vector-effect="non-scaling-stroke" d="M 0 0 L 100 0 Q 100 0 100 0 L 100 100 Q 100 100 100 100 L 0 100 Q 0 100 0 100 L 0 0 Q 0 0 0 0 Z" stroke-miterlimit="10" stroke-width="2"/><g transform="scale(1.282051282051282,6.666666666666667)"/></g></g></g></g><g transform="matrix(1,0,0,1,495,588)"><g><g><rect fill="rgb(0,0,0)" stroke="none" x="0" y="0" width="76" height="14" fill-opacity="0"/></g></g><g><g><rect fill="rgb(0,0,0)" stroke="none" x="0" y="0" width="76" height="14" fill-opacity="0"/></g></g><g><g><rect fill="rgb(0,0,0)" stroke="none" x="10.796875" y="0" width="54" height="14" fill-opacity="0"/></g></g><g><g><rect fill="rgb(0,0,0)" stroke="none" x="10.796875" y="0" width="54" height="14" fill-opacity="0"/></g><text fill="rgb(0, 0, 0)" stroke="none" font-family="Arial" font-size="12px" font-style="normal" font-weight="700" text-decoration="" line-height="14px" x="10.796875" y="11" data-layerId="li4HxaSbWyN8">Withdraw</text></g></g><g data-width="91" data-height="15" data-layerId="li4HxaSbWyN8" transform="translate(0,0) matrix(1,0,0,1,268,114.25000000000011)"><g><g transform="translate(0,0) scale(0.91,0.15)"><g><path fill="#EEEEEE" stroke="#333333" data-layerId="li4HxaSbWyN8" stroke-dasharray="1.7976931348623157e+308" vector-effect="non-scaling-stroke" d="M 0 0 L 100 0 Q 100 0 100 0 L 100 100 Q 100 100 100 100 L 0 100 Q 0 100 0 100 L 0 0 Q 0 0 0 0 Z" stroke-miterlimit="10" stroke-width="2"/><g transform="scale(1.0989010989010988,6.666666666666667)"/></g></g></g></g><g transform="matrix(1,0,0,1,269,115)"><g><g><rect fill="rgb(0,0,0)" stroke="none" x="0" y="0" width="88" height="14" fill-opacity="0"/></g></g><g><g><rect fill="rgb(0,0,0)" stroke="none" x="0" y="0" width="88" height="14" fill-opacity="0"/></g></g><g><g><rect fill="rgb(0,0,0)" stroke="none" x="4.703125" y="0" width="78" height="14" fill-opacity="0"/></g></g><g><g><rect fill="rgb(0,0,0)" stroke="none" x="4.703125" y="0" width="78" height="14" fill-opacity="0"/></g><text fill="rgb(0, 0, 0)" stroke="none" font-family="Arial" font-size="12px" font-style="normal" font-weight="700" text-decoration="" line-height="14px" x="4.703125" y="11" data-layerId="li4HxaSbWyN8">Configuration</text></g></g><g data-width="81" data-height="30" data-layerId="li4HxaSbWyN8" transform="translate(0,0) matrix(1,0,0,1,283.25,355.0000000000001)"><g><g transform="translate(0,0) scale(0.81,0.3)"><g><path fill="#EEEEEE" stroke="#333333" data-layerId="li4HxaSbWyN8" stroke-dasharray="1.7976931348623157e+308" vector-effect="non-scaling-stroke" d="M 0 0 L 100 0 Q 100 0 100 0 L 100 100 Q 100 100 100 100 L 0 100 Q 0 100 0 100 L 0 0 Q 0 0 0 0 Z" stroke-miterlimit="10" stroke-width="2"/><g transform="scale(1.2345679012345678,3.3333333333333335)"/></g></g></g></g><g transform="matrix(1,0,0,1,285,363)"><g><g><rect fill="rgb(0,0,0)" stroke="none" x="0" y="0" width="78" height="14" fill-opacity="0"/></g></g><g><g><rect fill="rgb(0,0,0)" stroke="none" x="0" y="0" width="78" height="14" fill-opacity="0"/></g></g><g><g><rect fill="rgb(0,0,0)" stroke="none" x="5.890625" y="0" width="66" height="14" fill-opacity="0"/></g></g><g><g><rect fill="rgb(0,0,0)" stroke="none" x="5.890625" y="0" width="66" height="14" fill-opacity="0"/></g><text fill="rgb(0, 0, 0)" stroke="none" font-family="Arial" font-size="12px" font-style="normal" font-weight="700" text-decoration="" line-height="14px" x="5.890625" y="11" data-layerId="li4HxaSbWyN8">DaoFactory</text></g></g><g data-width="88" data-height="30" data-layerId="li4HxaSbWyN8" transform="translate(0,0) matrix(1,0,0,1,373.25,355.0000000000001)"><g><g transform="translate(0,0) scale(0.88,0.3)"><g><path fill="#EEEEEE" stroke="#333333" data-layerId="li4HxaSbWyN8" stroke-dasharray="1.7976931348623157e+308" vector-effect="non-scaling-stroke" d="M 0 0 L 100 0 Q 100 0 100 0 L 100 100 Q 100 100 100 100 L 0 100 Q 0 100 0 100 L 0 0 Q 0 0 0 0 Z" stroke-miterlimit="10" stroke-width="2"/><g transform="scale(1.1363636363636365,3.3333333333333335)"/></g></g></g></g><g transform="matrix(1,0,0,1,375,363)"><g><g><rect fill="rgb(0,0,0)" stroke="none" x="0" y="0" width="85" height="14" fill-opacity="0"/></g></g><g><g><rect fill="rgb(0,0,0)" stroke="none" x="0" y="0" width="85" height="14" fill-opacity="0"/></g></g><g><g><rect fill="rgb(0,0,0)" stroke="none" x="3.921875" y="0" width="77" height="14" fill-opacity="0"/></g></g><g><g><rect fill="rgb(0,0,0)" stroke="none" x="3.921875" y="0" width="77" height="14" fill-opacity="0"/></g><text fill="rgb(0, 0, 0)" stroke="none" font-family="Arial" font-size="12px" font-style="normal" font-weight="700" text-decoration="" line-height="14px" x="3.921875" y="11" data-layerId="li4HxaSbWyN8">CloneFactory</text></g></g><g data-width="88" data-height="30" data-layerId="li4HxaSbWyN8" transform="translate(0,0) matrix(1,0,0,1,471.75,355.0000000000001)"><g><g transform="translate(0,0) scale(0.88,0.3)"><g><path fill="#EEEEEE" stroke="#333333" data-layerId="li4HxaSbWyN8" stroke-dasharray="1.7976931348623157e+308" vector-effect="non-scaling-stroke" d="M 0 0 L 100 0 Q 100 0 100 0 L 100 100 Q 100 100 100 100 L 0 100 Q 0 100 0 100 L 0 0 Q 0 0 0 0 Z" stroke-miterlimit="10" stroke-width="2"/><g transform="scale(1.1363636363636365,3.3333333333333335)"/></g></g></g></g><g transform="matrix(1,0,0,1,473,363)"><g><g><rect fill="rgb(0,0,0)" stroke="none" x="0" y="0" width="85" height="14" fill-opacity="0"/></g></g><g><g><rect fill="rgb(0,0,0)" stroke="none" x="0" y="0" width="85" height="14" fill-opacity="0"/></g></g><g><g><rect fill="rgb(0,0,0)" stroke="none" x="1.59375" y="0" width="81" height="14" fill-opacity="0"/></g></g><g><g><rect fill="rgb(0,0,0)" stroke="none" x="1.59375" y="0" width="81" height="14" fill-opacity="0"/></g><text fill="rgb(0, 0, 0)" stroke="none" font-family="Arial" font-size="12px" font-style="normal" font-weight="700" text-decoration="" line-height="14px" x="1.59375" y="11" data-layerId="li4HxaSbWyN8">DaoConstants</text></g></g><g data-width="88" data-height="15" data-layerId="li4HxaSbWyN8" transform="translate(0,0) matrix(1,0,0,1,331.5,550)"><g><g transform="translate(0,0) scale(0.88,0.15)"><g><path fill="#EEEEEE" stroke="#333333" data-layerId="li4HxaSbWyN8" stroke-dasharray="1.7976931348623157e+308" vector-effect="non-scaling-stroke" d="M 0 0 L 100 0 Q 100 0 100 0 L 100 100 Q 100 100 100 100 L 0 100 Q 0 100 0 100 L 0 0 Q 0 0 0 0 Z" stroke-miterlimit="10" stroke-width="2"/><g transform="scale(1.1363636363636365,6.666666666666667)"/></g></g></g></g><g transform="matrix(1,0,0,1,333,551)"><g><g><rect fill="rgb(0,0,0)" stroke="none" x="0" y="0" width="85" height="14" fill-opacity="0"/></g></g><g><g><rect fill="rgb(0,0,0)" stroke="none" x="0" y="0" width="85" height="14" fill-opacity="0"/></g></g><g><g><rect fill="rgb(0,0,0)" stroke="none" x="22.578125" y="0" width="40" height="14" fill-opacity="0"/></g></g><g><g><rect fill="rgb(0,0,0)" stroke="none" x="22.578125" y="0" width="40" height="14" fill-opacity="0"/></g><text fill="rgb(0, 0, 0)" stroke="none" font-family="Arial" font-size="12px" font-style="normal" font-weight="700" text-decoration="" line-height="14px" x="22.578125" y="11" data-layerId="li4HxaSbWyN8">Tribute</text></g></g><g data-width="88" data-height="15" data-layerId="li4HxaSbWyN8" transform="translate(0,0) matrix(1,0,0,1,437.5,550)"><g><g transform="translate(0,0) scale(0.88,0.15)"><g><path fill="#EEEEEE" stroke="#333333" data-layerId="li4HxaSbWyN8" stroke-dasharray="1.7976931348623157e+308" vector-effect="non-scaling-stroke" d="M 0 0 L 100 0 Q 100 0 100 0 L 100 100 Q 100 100 100 100 L 0 100 Q 0 100 0 100 L 0 0 Q 0 0 0 0 Z" stroke-miterlimit="10" stroke-width="2"/><g transform="scale(1.1363636363636365,6.666666666666667)"/></g></g></g></g><g transform="matrix(1,0,0,1,439,551)"><g><g><rect fill="rgb(0,0,0)" stroke="none" x="0" y="0" width="85" height="14" fill-opacity="0"/></g></g><g><g><rect fill="rgb(0,0,0)" stroke="none" x="0" y="0" width="85" height="14" fill-opacity="0"/></g></g><g><g><rect fill="rgb(0,0,0)" stroke="none" x="14.578125" y="0" width="56" height="14" fill-opacity="0"/></g></g><g><g><rect fill="rgb(0,0,0)" stroke="none" x="14.578125" y="0" width="56" height="14" fill-opacity="0"/></g><text fill="rgb(0, 0, 0)" stroke="none" font-family="Arial" font-size="12px" font-style="normal" font-weight="700" text-decoration="" line-height="14px" x="14.578125" y="11" data-layerId="li4HxaSbWyN8">Distribute</text></g></g></g></svg>